<svg width="61" height="33" viewBox="0 0 61 33" fill="none" xmlns="http://www.w3.org/2000/svg">
<path d="M57.8838 0H3.07893C2.26234 0 1.47921 0.324386 0.901795 0.901797C0.324384 1.47921 0 2.26234 0 3.07893V29.7886C0 30.6052 0.324384 31.3883 0.901795 31.9657C1.47921 32.5432 2.26234 32.8675 3.07893 32.8675H57.8838C58.7004 32.8675 59.4835 32.5432 60.061 31.9657C60.6384 31.3883 60.9628 30.6052 60.9628 29.7886V3.07893C60.9628 2.26234 60.6384 1.47921 60.061 0.901797C59.4835 0.324386 58.7004 0 57.8838 0ZM22.8264 8.54402H12.308V13.8013H22.8264V19.0624H12.308V29.5808H7.05074V3.28675H22.8302L22.8264 8.54402ZM53.5849 8.26692C53.5854 8.30313 53.5787 8.33907 53.5652 8.37267C53.5517 8.40627 53.5316 8.43685 53.5062 8.46263C53.4808 8.48842 53.4505 8.50889 53.4171 8.52286C53.3837 8.53683 53.3478 8.54403 53.3116 8.54402H48.3468V13.5473C48.3469 13.5835 48.3397 13.6193 48.3257 13.6527C48.3117 13.6862 48.2912 13.7164 48.2655 13.7419C48.2397 13.7673 48.2091 13.7873 48.1755 13.8008C48.1419 13.8144 48.106 13.821 48.0697 13.8205H43.0665V19.0624H48.0697C48.106 19.0619 48.1419 19.0686 48.1755 19.0821C48.2091 19.0956 48.2397 19.1156 48.2655 19.1411C48.2912 19.1665 48.3117 19.1968 48.3257 19.2302C48.3397 19.2636 48.3469 19.2995 48.3468 19.3357V24.3197H53.3116C53.3478 24.3197 53.3837 24.3269 53.4171 24.3408C53.4505 24.3548 53.4808 24.3753 53.5062 24.4011C53.5316 24.4268 53.5517 24.4574 53.5652 24.491C53.5787 24.5246 53.5854 24.5606 53.5849 24.5968V29.3037C53.5854 29.3399 53.5787 29.3758 53.5652 29.4094C53.5517 29.443 53.5316 29.4736 53.5062 29.4994C53.4808 29.5252 53.4505 29.5457 53.4171 29.5596C53.3837 29.5736 53.3478 29.5808 53.3116 29.5808H48.6009C48.5647 29.5808 48.5288 29.5736 48.4954 29.5596C48.462 29.5457 48.4317 29.5252 48.4063 29.4994C48.3808 29.4736 48.3608 29.443 48.3473 29.4094C48.3338 29.3758 48.3271 29.3399 48.3276 29.3037V24.3004H43.3436C43.3074 24.3009 43.2714 24.2943 43.2378 24.2807C43.2042 24.2672 43.1737 24.2472 43.1479 24.2218C43.1221 24.1963 43.1016 24.1661 43.0877 24.1326C43.0737 24.0992 43.0665 24.0634 43.0665 24.0272V19.0624H37.8092V24.0464C37.8092 24.0826 37.802 24.1185 37.7881 24.1519C37.7741 24.1853 37.7536 24.2156 37.7278 24.241C37.702 24.2664 37.6715 24.2865 37.6379 24.3C37.6043 24.3135 37.5683 24.3202 37.5321 24.3197H32.5673V29.3229C32.5673 29.3964 32.5382 29.4669 32.4862 29.5189C32.4342 29.5708 32.3637 29.6 32.2902 29.6H27.5641C27.4906 29.6 27.4201 29.5708 27.3682 29.5189C27.3162 29.4669 27.287 29.3964 27.287 29.3229V24.5968C27.287 24.5233 27.3162 24.4528 27.3682 24.4008C27.4201 24.3489 27.4906 24.3197 27.5641 24.3197H32.5673V19.3357C32.5673 19.2632 32.5961 19.1937 32.6474 19.1424C32.6986 19.0912 32.7681 19.0624 32.8406 19.0624H37.8246V13.8013H32.8252C32.7527 13.8013 32.6832 13.7725 32.632 13.7213C32.5807 13.67 32.552 13.6005 32.552 13.528V8.54402H27.5641C27.4906 8.54402 27.4201 8.51483 27.3682 8.46286C27.3162 8.41089 27.287 8.34041 27.287 8.26692V3.56001C27.287 3.5238 27.2942 3.48795 27.3082 3.45454C27.3221 3.42114 27.3426 3.39084 27.3684 3.36542C27.3942 3.33999 27.4247 3.31994 27.4583 3.30644C27.4919 3.29294 27.5279 3.28624 27.5641 3.28675H32.271C32.3072 3.28624 32.3432 3.29294 32.3768 3.30644C32.4104 3.31994 32.4409 3.33999 32.4667 3.36542C32.4925 3.39084 32.513 3.42114 32.5269 3.45454C32.5409 3.48795 32.5481 3.5238 32.5481 3.56001V8.56327H37.5321C37.6056 8.56327 37.6761 8.59246 37.7281 8.64443C37.78 8.69639 37.8092 8.76688 37.8092 8.84037V13.8013H43.0665V8.82113C43.0665 8.74763 43.0957 8.67715 43.1476 8.62518C43.1996 8.57322 43.2701 8.54402 43.3436 8.54402H48.3468V3.56001C48.3468 3.48754 48.3756 3.41803 48.4269 3.36679C48.4781 3.31554 48.5476 3.28675 48.6201 3.28675H53.3116C53.3841 3.28675 53.4536 3.31554 53.5048 3.36679C53.5561 3.41803 53.5849 3.48754 53.5849 3.56001V8.26692Z" fill="white"/>
</svg>
