<svg width="130" height="40" viewBox="0 0 130 40" fill="none" xmlns="http://www.w3.org/2000/svg">
<g clip-path="url(#clip0_1_621)">
<path d="M6.28871 0.0539822H0.277103C0.240897 0.0534722 0.204949 0.0601635 0.171351 0.0736673C0.137753 0.0871712 0.107173 0.107218 0.0813904 0.132643C0.0556072 0.158068 0.0351346 0.188364 0.0211622 0.22177C0.00718984 0.255176 -3.59043e-06 0.291027 1.3444e-09 0.327237V32.5905C1.3444e-09 32.664 0.0291947 32.7345 0.0811617 32.7865C0.133129 32.8385 0.203611 32.8676 0.277103 32.8676H6.28871C6.32492 32.8677 6.36077 32.8605 6.39418 32.8465C6.42758 32.8325 6.45788 32.812 6.4833 32.7863C6.50873 32.7605 6.52877 32.7299 6.54228 32.6963C6.55578 32.6627 6.56247 32.6268 6.56196 32.5905V0.327237C6.56196 0.291353 6.5549 0.25582 6.54116 0.222667C6.52743 0.189514 6.5073 0.159391 6.48193 0.134017C6.45655 0.108643 6.42643 0.0885148 6.39328 0.0747825C6.36013 0.0610501 6.32459 0.0539822 6.28871 0.0539822Z" fill="white"/>
<path d="M126.921 0H72.1162C71.2996 0 70.5164 0.324386 69.939 0.901797C69.3616 1.47921 69.0372 2.26234 69.0372 3.07893V29.7886C69.0372 30.6052 69.3616 31.3883 69.939 31.9657C70.5164 32.5432 71.2996 32.8675 72.1162 32.8675H126.921C127.738 32.8675 128.521 32.5432 129.098 31.9657C129.676 31.3883 130 30.6052 130 29.7886V3.07893C130 2.26234 129.676 1.47921 129.098 0.901797C128.521 0.324386 127.738 0 126.921 0ZM91.8636 8.54402H81.3452V13.8013H91.8636V19.0624H81.3452V29.5808H76.088V3.28675H91.8675L91.8636 8.54402ZM122.622 8.26692C122.623 8.30313 122.616 8.33907 122.602 8.37267C122.589 8.40627 122.569 8.43685 122.543 8.46263C122.518 8.48842 122.488 8.50889 122.454 8.52286C122.421 8.53683 122.385 8.54403 122.349 8.54402H117.384V13.5473C117.384 13.5835 117.377 13.6193 117.363 13.6527C117.349 13.6862 117.328 13.7164 117.303 13.7419C117.277 13.7673 117.246 13.7873 117.213 13.8008C117.179 13.8144 117.143 13.821 117.107 13.8205H112.104V19.0624H117.107C117.143 19.0619 117.179 19.0686 117.213 19.0821C117.246 19.0956 117.277 19.1156 117.303 19.1411C117.328 19.1665 117.349 19.1968 117.363 19.2302C117.377 19.2636 117.384 19.2995 117.384 19.3357V24.3197H122.349C122.385 24.3197 122.421 24.3269 122.454 24.3408C122.488 24.3548 122.518 24.3753 122.543 24.4011C122.569 24.4268 122.589 24.4574 122.602 24.491C122.616 24.5246 122.623 24.5606 122.622 24.5968V29.3037C122.623 29.3399 122.616 29.3758 122.602 29.4094C122.589 29.443 122.569 29.4736 122.543 29.4994C122.518 29.5252 122.488 29.5457 122.454 29.5596C122.421 29.5736 122.385 29.5808 122.349 29.5808H117.638C117.602 29.5808 117.566 29.5736 117.533 29.5596C117.499 29.5457 117.469 29.5252 117.444 29.4994C117.418 29.4736 117.398 29.443 117.385 29.4094C117.371 29.3758 117.364 29.3399 117.365 29.3037V24.3004H112.381C112.345 24.3009 112.309 24.2943 112.275 24.2807C112.241 24.2672 112.211 24.2472 112.185 24.2218C112.159 24.1963 112.139 24.166 112.125 24.1326C112.111 24.0992 112.104 24.0634 112.104 24.0272V19.0624H106.846V24.0464C106.846 24.0826 106.839 24.1185 106.825 24.1519C106.811 24.1853 106.791 24.2156 106.765 24.241C106.739 24.2664 106.709 24.2865 106.675 24.3C106.642 24.3135 106.606 24.3202 106.569 24.3197H101.605V29.3229C101.605 29.3964 101.575 29.4669 101.523 29.5189C101.471 29.5708 101.401 29.6 101.327 29.6H96.6013C96.5278 29.6 96.4574 29.5708 96.4054 29.5189C96.3534 29.4669 96.3242 29.3964 96.3242 29.3229V24.5968C96.3242 24.5233 96.3534 24.4528 96.4054 24.4008C96.4574 24.3489 96.5278 24.3197 96.6013 24.3197H101.605V19.3357C101.605 19.2632 101.633 19.1937 101.685 19.1424C101.736 19.0912 101.805 19.0624 101.878 19.0624H106.862V13.8013H101.862C101.79 13.8013 101.72 13.7725 101.669 13.7213C101.618 13.67 101.589 13.6005 101.589 13.528V8.54402H96.6013C96.5278 8.54402 96.4574 8.51483 96.4054 8.46286C96.3534 8.41089 96.3242 8.34041 96.3242 8.26692V3.56001C96.3242 3.5238 96.3314 3.48795 96.3454 3.45454C96.3594 3.42114 96.3798 3.39084 96.4056 3.36542C96.4314 3.33999 96.462 3.31994 96.4956 3.30644C96.5292 3.29294 96.5651 3.28624 96.6013 3.28675H101.308C101.344 3.28624 101.38 3.29294 101.414 3.30644C101.448 3.31994 101.478 3.33999 101.504 3.36542C101.53 3.39084 101.55 3.42114 101.564 3.45454C101.578 3.48795 101.585 3.5238 101.585 3.56001V8.56327H106.569C106.643 8.56327 106.713 8.59246 106.765 8.64443C106.817 8.69639 106.846 8.76688 106.846 8.84037V13.8013H112.104V8.82113C112.104 8.74763 112.133 8.67715 112.185 8.62518C112.237 8.57322 112.307 8.54402 112.381 8.54402H117.384V3.56001C117.384 3.48754 117.413 3.41803 117.464 3.36679C117.515 3.31554 117.585 3.28675 117.657 3.28675H122.349C122.421 3.28675 122.491 3.31554 122.542 3.36679C122.593 3.41803 122.622 3.48754 122.622 3.56001V8.26692Z" fill="white"/>
<path d="M10.1605 6.61592C10.0876 6.61591 10.0177 6.64458 9.96587 6.69571C9.91401 6.74685 9.88437 6.81635 9.88336 6.88917V26.0286C9.88437 26.1014 9.91401 26.1709 9.96587 26.222C10.0177 26.2731 10.0876 26.3018 10.1605 26.3018H16.4492V6.61592H10.1605ZM29.2998 0.0539551H16.7224C16.65 0.0539551 16.5805 0.0827443 16.5292 0.13399C16.478 0.185235 16.4492 0.254738 16.4492 0.32721V6.61592H29.5731V0.32721C29.5731 0.291326 29.566 0.255793 29.5523 0.22264C29.5386 0.189487 29.5184 0.159364 29.4931 0.13399C29.4677 0.108615 29.4376 0.0884877 29.4044 0.0747554C29.3713 0.061023 29.3357 0.0539551 29.2998 0.0539551ZM16.4492 26.3018V32.5905C16.4487 32.6267 16.4554 32.6627 16.4689 32.6963C16.4824 32.7299 16.5024 32.7604 16.5278 32.7862C16.5533 32.812 16.5836 32.8325 16.617 32.8465C16.6504 32.8604 16.6862 32.8676 16.7224 32.8676H29.5731V26.3018H16.4492ZM35.8618 6.61592H29.5731V26.3018H35.8618C35.9343 26.3018 36.0038 26.273 36.055 26.2218C36.1063 26.1705 36.1351 26.101 36.1351 26.0286V6.88917C36.1351 6.8167 36.1063 6.7472 36.055 6.69595C36.0038 6.64471 35.9343 6.61592 35.8618 6.61592ZM35.8618 32.8676H29.5731V39.1525C29.5731 39.226 29.6023 39.2965 29.6543 39.3484C29.7062 39.4004 29.7767 39.4296 29.8502 39.4296H35.8618C35.898 39.4296 35.9339 39.4224 35.9673 39.4084C36.0007 39.3944 36.031 39.374 36.0564 39.3482C36.0818 39.3224 36.1019 39.2918 36.1154 39.2582C36.1289 39.2246 36.1356 39.1887 36.1351 39.1525V33.1409C36.1351 33.0684 36.1063 32.9989 36.055 32.9477C36.0038 32.8964 35.9343 32.8676 35.8618 32.8676Z" fill="white"/>
<path d="M46.2994 6.61595H59.1501V0.327237C59.1501 0.256079 59.1224 0.187718 59.0728 0.136688C59.0232 0.0856584 58.9556 0.0559866 58.8845 0.0539822H39.7374C39.7012 0.0534722 39.6653 0.0601635 39.6317 0.0736673C39.5981 0.0871712 39.5675 0.107218 39.5417 0.132643C39.5159 0.158068 39.4955 0.188364 39.4815 0.22177C39.4675 0.255176 39.4603 0.291027 39.4603 0.327237V32.5905C39.4603 32.664 39.4895 32.7345 39.5415 32.7865C39.5935 32.8385 39.6639 32.8676 39.7374 32.8676H58.8845C58.958 32.8676 59.0285 32.8385 59.0804 32.7865C59.1324 32.7345 59.1616 32.664 59.1616 32.5905V26.3018H46.2994C46.2269 26.3018 46.1574 26.273 46.1062 26.2218C46.0549 26.1706 46.0261 26.1011 46.0261 26.0286V6.8892C46.0261 6.81673 46.0549 6.74723 46.1062 6.69598C46.1574 6.64474 46.2269 6.61595 46.2994 6.61595ZM65.4388 6.61595H59.1501V26.3018H65.4272C65.4997 26.3018 65.5692 26.273 65.6205 26.2218C65.6717 26.1706 65.7005 26.1011 65.7005 26.0286V6.8892C65.7005 6.81673 65.6717 6.74723 65.6205 6.69598C65.5692 6.64474 65.4997 6.61595 65.4272 6.61595H65.4388Z" fill="white"/>
</g>
<defs>
<clipPath id="clip0_1_621">
<rect width="130" height="39.4295" fill="white"/>
</clipPath>
</defs>
</svg>
